<svg height="64" viewBox="0 0 64 64" width="64" xmlns="http://www.w3.org/2000/svg"><g fill="none" fill-rule="evenodd"><circle cx="31" cy="32" fill="#5ea7ff" r="30"/><path d="m44.515655 23.8972765s2.4865051-.1958541 3.484345-.9381925c0 0-.2391578.8545694-3.2312056 3.5583829 0 0 1.0074061 14.5892966-14.3428443 18.1623502 0 0-7.7847699 1.6577913-13.4259501-2.5710435 0 0 5.9053576 1.0474893 9.2278111-2.6157892 0 0-4.2857075.0432786-5.6411802-4.315392 0 0 1.6181784.3484296 2.5799606-.0872908 0 0-4.8545351-1.0034772-4.7669666-6.2783342 0 0 1.3120564.959465 2.4923921.7848835 0 0-4.3725402-3.7065572-1.6615947-8.3263666 0 0 5.8589978 6.906241 13.120564 6.4961944-.1265697-.4944033-.1950056-1.0122797-.1950056-1.5477609 0-3.4336818 2.7940988-6.2189178 6.2401785-6.2189178 1.7410687 0 3.3158307.7115299 4.4483348 1.8580466.8300615.0139371 2.5372802-.1335036 4.2422912-1.3504397 0 .0007335.0978707 1.3306342-2.5711302 3.3896696z" fill="#fff"/></g></svg>